<?xml version="1.0" encoding="UTF-8"?>
<svg version="1.1" xmlns="http://www.w3.org/2000/svg" width="1200" height="627">
<path d="M0 0 C396 0 792 0 1200 0 C1200 206.91 1200 413.82 1200 627 C804 627 408 627 0 627 C0 420.09 0 213.18 0 0 Z " fill="#FEFEFE" transform="translate(0,0)"/>
<path d="M0 0 C0.66 0 1.32 0 2 0 C3.19140625 1.43359375 3.19140625 1.43359375 4.5625 3.4375 C11.04921473 12.30581048 18.52276883 18.53144615 28 24 C29.1034375 24.64066406 30.206875 25.28132813 31.34375 25.94140625 C48.66829239 35.87754086 66.37609698 45.16212017 84.125 54.3125 C93.87260752 59.34454414 103.52265921 64.47608912 113 70 C114.28946533 70.74830078 114.28946533 70.74830078 115.60498047 71.51171875 C136.36307659 83.58029595 157.22795633 96.23744086 174.7265625 112.84765625 C176.77606188 114.78798986 178.88576932 116.58113302 181.0625 118.375 C197.29835706 132.5855252 210.2999158 154.30841468 212 176 C213.40416773 202.53925264 209.34332667 223.11913558 192 244 C191.47148438 244.64324219 190.94296875 245.28648437 190.3984375 245.94921875 C176.43691405 261.30689454 154.30528908 269.26224564 133.96484375 270.3515625 C102.25840357 271.25224449 72.15351484 258.29280228 49.0625 236.875 C47.49620878 235.38517675 45.94325875 233.883682 44.40039062 232.36962891 C43.13217995 231.12927642 41.84076692 229.91275751 40.546875 228.69921875 C31.45198798 220.00183554 24.41301142 209.95701656 17.8125 199.3125 C17.31830566 198.52174072 16.82411133 197.73098145 16.31494141 196.91625977 C15.86683105 196.17690186 15.4187207 195.43754395 14.95703125 194.67578125 C14.55460205 194.01489502 14.15217285 193.35400879 13.73754883 192.6730957 C13.49415771 192.12097412 13.2507666 191.56885254 13 191 C13.495 190.01 13.495 190.01 14 189 C14.49886719 189.64324219 14.99773437 190.28648437 15.51171875 190.94921875 C34.98199052 215.45309758 62.88335578 237.41556918 94.8515625 241.78466797 C107.82770864 243.08523171 120.90954408 243.33842689 133 238 C134.00933594 237.57589844 135.01867187 237.15179687 136.05859375 236.71484375 C152.16144461 229.35061005 162.30122485 217.6357253 168.8125 201.33984375 C174.87593334 184.28643748 172.43270177 166.84103071 164.8125 150.75 C156.18086508 134.66790126 143.04539515 121.50243939 129 110 C127.94232422 109.10861328 127.94232422 109.10861328 126.86328125 108.19921875 C111.31711055 95.37683994 93.8195454 84.78898623 76.50976562 74.54882812 C60.29729249 64.94751135 44.99117212 54.50421177 30.59033203 42.33642578 C29.29296097 41.24618795 27.97541712 40.17999273 26.65234375 39.12109375 C13.94044155 28.70620879 4.9501994 15.65205906 0 0 Z " fill="#6C6D6F" transform="translate(445,292)"/>
<path d="M0 0 C2.40902589 1.87784317 4.72296991 3.81823928 7.015625 5.8359375 C7.81871094 6.53074219 8.62179687 7.22554687 9.44921875 7.94140625 C12.01117566 10.1996054 14.51838551 12.5064515 17.015625 14.8359375 C18.32853516 16.03283203 18.32853516 16.03283203 19.66796875 17.25390625 C29.6772856 26.7462426 39.55372538 39.04473651 45.015625 51.8359375 C44.685625 52.4959375 44.355625 53.1559375 44.015625 53.8359375 C43.23058594 52.97871094 42.44554687 52.12148438 41.63671875 51.23828125 C38.92578748 48.28357364 36.20287907 45.34024143 33.47216797 42.40380859 C32.3381131 41.18307437 31.20906742 39.95768592 30.08203125 38.73046875 C12.71065664 20.49269142 -16.32559463 4.39468131 -41.9609375 3.6328125 C-56.71576374 3.41613133 -56.71576374 3.41613133 -70.984375 6.8359375 C-71.72945312 7.09117187 -72.47453125 7.34640625 -73.2421875 7.609375 C-88.82837514 13.69860243 -101.07950166 25.73846524 -107.984375 40.8359375 C-110.63887603 47.08182228 -111.62624169 53.08407121 -111.984375 59.8359375 C-112.04882812 60.56941406 -112.11328125 61.30289063 -112.1796875 62.05859375 C-112.93950365 76.82435426 -107.65908321 90.53928606 -99.984375 102.8359375 C-99.43523438 103.74085938 -98.88609375 104.64578125 -98.3203125 105.578125 C-89.2511691 119.20254591 -75.92271022 130.9578672 -62.984375 140.8359375 C-62.02015625 141.61710938 -61.0559375 142.39828125 -60.0625 143.203125 C-51.98213704 149.70340751 -43.35794479 155.04546455 -34.46142578 160.35009766 C51.11029463 211.67963545 51.11029463 211.67963545 59.015625 242.8359375 C58.685625 243.8259375 58.355625 244.8159375 58.015625 245.8359375 C57.45875 244.9490625 56.901875 244.0621875 56.328125 243.1484375 C54.19863529 239.97638512 51.81940563 237.45279943 49.015625 234.8359375 C48.42394531 234.25070312 47.83226562 233.66546875 47.22265625 233.0625 C35.31956543 221.76238001 19.6108995 214.85848782 5.27734375 207.203125 C0.27362311 204.524993 -4.6827064 201.77769719 -9.609375 198.9609375 C-14.53669276 196.15176355 -19.51901788 193.52470075 -24.609375 191.0234375 C-55.90499887 175.61289043 -88.50122413 157.69875596 -114.0546875 133.6484375 C-115.70858616 132.09497803 -117.39119748 130.67583637 -119.171875 129.2734375 C-122.84143343 126.09315353 -125.88185289 122.56158772 -128.984375 118.8359375 C-129.94537109 117.70671875 -129.94537109 117.70671875 -130.92578125 116.5546875 C-145.30427445 99.2217094 -152.40706273 81.03117752 -152.296875 58.5859375 C-152.29123535 57.38880127 -152.2855957 56.19166504 -152.27978516 54.95825195 C-151.9837074 33.42225983 -144.58737369 14.67129302 -129.609375 -0.9765625 C-92.41987652 -36.10712681 -38.54901092 -27.9530786 0 0 Z " fill="#C02225" transform="translate(694.984375,212.1640625)"/>
<path d="M0 0 C9.4260356 3.40521705 16.78951199 11.26731541 24 18 C24.8765625 18.79921875 25.753125 19.5984375 26.65625 20.421875 C36.66432726 29.91229309 46.53904879 42.21102008 52 55 C51.505 55.99 51.505 55.99 51 57 C50.21496094 56.14277344 49.42992187 55.28554688 48.62109375 54.40234375 C45.91016248 51.44763614 43.18725407 48.50430393 40.45654297 45.56787109 C39.3224881 44.34713687 38.19344242 43.12174842 37.06640625 41.89453125 C25.21398447 29.45096624 9.6299021 20.75334559 -6 14 C-6 13.01 -6 12.02 -6 11 C-4.35 11 -2.7 11 -1 11 C-1.33 9.68 -1.66 8.36 -2 7 C-1.16855469 7.2165625 -1.16855469 7.2165625 -0.3203125 7.4375 C0.40414062 7.623125 1.12859375 7.80875 1.875 8 C2.95394531 8.2784375 2.95394531 8.2784375 4.0546875 8.5625 C5.99289317 9.07313965 5.99289317 9.07313965 8 9 C6.86516076 5.59548229 6.44722063 5.3994436 3.4375 3.8125 C2.303125 3.214375 1.16875 2.61625 0 2 C0 1.34 0 0.68 0 0 Z " fill="#862A29" transform="translate(688,209)"/>
<path d="M0 0 C3.67951872 1.2881504 6.06794037 2.76430659 8.9375 5.375 C16.50788925 11.58115367 25.28521209 15.79946434 33.90478516 20.35742188 C39.22669395 23.18166879 44.5172635 26.0636599 49.8125 28.9375 C50.79557129 29.46883545 51.77864258 30.0001709 52.79150391 30.54760742 C58.5493807 33.6600931 64.28667058 36.80644983 70 40 C70 43 70 43 68.375 44.8125 C66 46 66 46 63.42578125 45.40234375 C58.9640829 43.57594728 54.94805014 41.21426443 50.8125 38.75 C49.12038198 37.75550532 47.42767631 36.76200983 45.734375 35.76953125 C44.92162109 35.29209473 44.10886719 34.8146582 43.27148438 34.32275391 C37.61572341 31.0292336 31.86750261 27.90033728 26 25 C26 24.34 26 23.68 26 23 C25.2678125 22.72800781 24.535625 22.45601563 23.78125 22.17578125 C17.26651892 19.42166039 11.78691998 15.16483471 7 10 C6.38769531 9.41863281 5.77539062 8.83726562 5.14453125 8.23828125 C4.49871094 7.62339844 3.85289062 7.00851562 3.1875 6.375 C2.58292969 5.80523437 1.97835938 5.23546875 1.35546875 4.6484375 C0 3 0 3 0 0 Z " fill="#575758" transform="translate(454,304)"/>
<path d="M0 0 C5.83967332 2.08401961 9.31081122 4.73001082 13.4375 9.3125 C13.99735596 9.92697998 14.55721191 10.54145996 15.1340332 11.17456055 C22.51516971 19.53644469 28.45056642 28.76660657 30 40 C29.1646875 38.9171875 29.1646875 38.9171875 28.3125 37.8125 C25.99873209 34.99845795 23.63396484 32.51944463 21 30 C20.33484375 29.34 19.6696875 28.68 18.984375 28 C13.45959125 22.73133205 7.6972088 18.75275022 1.09033203 15.00683594 C-2.0806938 13.20453263 -4.39090968 11.60909032 -7 9 C-4.03 9.33 -1.06 9.66 2 10 C1.67 8.906875 1.34 7.81375 1 6.6875 C0 3 0 3 0 0 Z " fill="#E52730" transform="translate(724,418)"/>
<path d="M0 0 C-0.33 0.99 -0.66 1.98 -1 3 C-2.32 2.67 -3.64 2.34 -5 2 C-5 1.34 -5 0.68 -5 0 C-9.04141194 -0.63394697 -12.9065307 -1.12404452 -17 -1 C-16.67 -1.66 -16.34 -2.32 -16 -3 C-16.7115625 -3.14179688 -17.423125 -3.28359375 -18.15625 -3.4296875 C-20.01204509 -3.80186619 -21.86632061 -4.18172817 -23.71875 -4.5703125 C-24.6365625 -4.75335938 -25.554375 -4.93640625 -26.5 -5.125 C-27.87671875 -5.40730469 -27.87671875 -5.40730469 -29.28125 -5.6953125 C-32.12072101 -6.01352908 -34.2476904 -5.70802167 -37 -5 C-37 -5.99 -37 -6.98 -37 -8 C-39.08368538 -7.68985608 -41.16693668 -7.3767948 -43.25 -7.0625 C-44.99023438 -6.80146484 -44.99023438 -6.80146484 -46.765625 -6.53515625 C-49.84693768 -6.074025 -49.84693768 -6.074025 -52.21484375 -5.4296875 C-54 -5 -54 -5 -57.3125 -5.0625 C-61.23946727 -4.99594123 -64.31272306 -4.3274197 -68 -3 C-68.33 -2.34 -68.66 -1.68 -69 -1 C-70.175625 -0.896875 -71.35125 -0.79375 -72.5625 -0.6875 C-78.38494369 -0.12099197 -82.92116694 2.92116694 -87 7 C-90.125 7.125 -90.125 7.125 -93 7 C-93.28875 7.5775 -93.5775 8.155 -93.875 8.75 C-94.24625 9.4925 -94.6175 10.235 -95 11 C-95.309375 11.721875 -95.61875 12.44375 -95.9375 13.1875 C-97 15 -97 15 -100 16 C-100.66 16.99 -101.32 17.98 -102 19 C-104.125 19.6875 -104.125 19.6875 -106 20 C-106 21.98 -106 23.96 -106 26 C-106.928125 26.3403125 -106.928125 26.3403125 -107.875 26.6875 C-110.61410209 28.37929835 -111.05024472 29.99244161 -112 33 C-112.99 32.34 -113.98 31.68 -115 31 C-109.84654907 16.67089254 -95.29461943 5.49456088 -82.1875 -1.1875 C-54.71662267 -13.08177073 -27.21918135 -10.526567 0 0 Z " fill="#9F4848" transform="translate(669,197)"/>
<path d="M0 0 C0.91007813 -0.020625 1.82015625 -0.04125 2.7578125 -0.0625 C4.06105469 -0.07023438 4.06105469 -0.07023438 5.390625 -0.078125 C6.17985352 -0.0874707 6.96908203 -0.09681641 7.78222656 -0.10644531 C8.75627441 0.06999512 8.75627441 0.06999512 9.75 0.25 C10.74 1.735 10.74 1.735 11.75 3.25 C10.595 3.064375 9.44 2.87875 8.25 2.6875 C-2.14676739 1.55954882 -19.68234289 1.31172347 -28.296875 7.7890625 C-30.62383363 9.52962756 -32.41153906 9.76657462 -35.25 10.25 C-46.3233829 14.51065709 -56.85828885 24.83841986 -62.25 35.25 C-62.55550781 35.9409375 -62.86101563 36.631875 -63.17578125 37.34375 C-64.25 39.25 -64.25 39.25 -67.25 41.25 C-66.79058002 36.31123516 -65.47187131 33.96003363 -62.25 30.25 C-61.940625 29.59 -61.63125 28.93 -61.3125 28.25 C-59.79786372 25.39891995 -57.55072674 23.49461145 -55.25 21.25 C-54.71375 20.486875 -54.1775 19.72375 -53.625 18.9375 C-53.17125 18.380625 -52.7175 17.82375 -52.25 17.25 C-51.26 17.25 -50.27 17.25 -49.25 17.25 C-49.25 16.26 -49.25 15.27 -49.25 14.25 C-48.49074219 13.84007812 -47.73148438 13.43015625 -46.94921875 13.0078125 C-45.45841797 12.19957031 -45.45841797 12.19957031 -43.9375 11.375 C-42.95136719 10.84132812 -41.96523438 10.30765625 -40.94921875 9.7578125 C-38.15413542 8.24277874 -38.15413542 8.24277874 -35.25 6.25 C-33.85379278 5.779686 -32.43774952 5.36626415 -31.01171875 4.99609375 C-30.19123047 4.78146484 -29.37074219 4.56683594 -28.52539062 4.34570312 C-27.67138672 4.12849609 -26.81738281 3.91128906 -25.9375 3.6875 C-25.09509766 3.46642578 -24.25269531 3.24535156 -23.38476562 3.01757812 C-15.48752132 0.97380341 -8.15430098 0.04699885 0 0 Z " fill="#922221" transform="translate(637.25,201.75)"/>
<path d="M0 0 C12.13193188 4.38273979 22.17629282 15.91333466 31 25 C30.01 25.99 29.02 26.98 28 28 C27.34 27.67 26.68 27.34 26 27 C26 26.34 26 25.68 26 25 C25.443125 24.731875 24.88625 24.46375 24.3125 24.1875 C22 23 22 23 19.4375 21.375 C17.03094021 19.75433941 17.03094021 19.75433941 14 20 C13.7525 19.38125 13.505 18.7625 13.25 18.125 C11.79371361 15.64931313 10.62187494 15.04874998 8 14 C8 13.34 8 12.68 8 12 C6.68 11.34 5.36 10.68 4 10 C5.32 9.67 6.64 9.34 8 9 C6.86516076 5.59548229 6.44722063 5.3994436 3.4375 3.8125 C2.303125 3.214375 1.16875 2.61625 0 2 C0 1.34 0 0.68 0 0 Z " fill="#982526" transform="translate(688,209)"/>
<path d="M0 0 C8.3643038 8.08102079 16.62332642 18.1276299 21 29 C20.67 29.66 20.34 30.32 20 31 C19.21496094 30.14277344 18.42992187 29.28554688 17.62109375 28.40234375 C12.18973664 22.48571966 6.74911643 16.6115046 1 11 C0.0195836 10.02208466 -0.95969234 9.04302379 -1.9375 8.0625 C-2.618125 7.381875 -3.29875 6.70125 -4 6 C-3.34 6 -2.68 6 -2 6 C-1.7834375 5.071875 -1.7834375 5.071875 -1.5625 4.125 C-1 2 -1 2 0 0 Z " fill="#982C26" transform="translate(719,235)"/>
<path d="M0 0 C0.66 0 1.32 0 2 0 C3.3671875 1.57421875 3.3671875 1.57421875 4.875 3.6875 C5.4009375 4.41324219 5.926875 5.13898438 6.46875 5.88671875 C6.9740625 6.58410156 7.479375 7.28148437 8 8 C9.32481269 9.67344761 10.65407903 11.34348188 12 13 C11.34 13 10.68 13 10 13 C11.43986995 16.74366186 13.87350302 18.9693114 16.7578125 21.6328125 C18 23 18 23 18 25 C18.556875 25.226875 19.11375 25.45375 19.6875 25.6875 C22.63246684 27.35896766 24.68156544 29.55276352 27 32 C26.67 32.66 26.34 33.32 26 34 C25.34 34 24.68 34 24 34 C23.67 34.66 23.34 35.32 23 36 C12.94769314 25.37157278 4.14152655 14.30709171 0 0 Z " fill="#767576" transform="translate(445,292)"/>
<path d="M0 0 C7.87084871 3.20664207 7.87084871 3.20664207 10.0625 6.6875 C11.31262504 9.77114177 11.6941602 12.69693021 12 16 C11.67 16.66 11.34 17.32 11 18 C8.69 17.01 6.38 16.02 4 15 C4 14.34 4 13.68 4 13 C3.113125 13.061875 2.22625 13.12375 1.3125 13.1875 C-2.34485017 12.98048018 -4.04777151 12.083926 -7 10 C-3.67465243 8.89155081 -1.37817425 9.15545644 2 10 C1.67 8.906875 1.34 7.81375 1 6.6875 C0 3 0 3 0 0 Z " fill="#E8242C" transform="translate(724,418)"/>
<path d="M0 0 C2.97 0 5.94 0 9 0 C6.0929328 2.9070672 3.30815298 4.82648665 -0.125 7.0625 C-10.97213855 14.42273484 -17.32875712 23.36574612 -23 35 C-23.66 34.67 -24.32 34.34 -25 34 C-24.24068034 32.03717369 -23.46713808 30.07984474 -22.6875 28.125 C-22.25824219 27.03445312 -21.82898438 25.94390625 -21.38671875 24.8203125 C-20 22 -20 22 -17 20 C-16.65846063 18.33499557 -16.32550502 16.66821323 -16 15 C-14.05779403 12.52810149 -13.06261493 12.02087164 -10 11 C-8.684787 8.85412616 -8 7.52986895 -8 5 C-4.535 4.505 -4.535 4.505 -1 4 C-0.67 2.68 -0.34 1.36 0 0 Z " fill="#802D2C" transform="translate(609,220)"/>
<path d="M0 0 C3.27479244 3.16915398 6.34143965 6.47326394 9.375 9.875 C13.11710844 14.06214982 16.97178663 18.08835872 21 22 C20.67 22.66 20.34 23.32 20 24 C17.3203125 24.44140625 17.3203125 24.44140625 14 24 C11.82726627 21.94590591 10.40147834 19.49206392 8.875 16.9375 C8.45863281 16.28072266 8.04226563 15.62394531 7.61328125 14.94726562 C6.37788364 12.98186033 5.18335854 10.99710259 4 9 C3.60586914 8.34402832 3.21173828 7.68805664 2.80566406 7.01220703 C0 2.25343558 0 2.25343558 0 0 Z " fill="#6A6A6A" transform="translate(458,481)"/>
<path d="M0 0 C0.33 1.32 0.66 2.64 1 4 C0.01 4.33 -0.98 4.66 -2 5 C-2.99 6.485 -2.99 6.485 -4 8 C-6.125 8.6875 -6.125 8.6875 -8 9 C-8 10.98 -8 12.96 -8 15 C-8.928125 15.3403125 -8.928125 15.3403125 -9.875 15.6875 C-12.61410209 17.37929835 -13.05024472 18.99244161 -14 22 C-14.99 21.34 -15.98 20.68 -17 20 C-15.68058498 16.29649348 -14.07121349 13.50861956 -11.625 10.4375 C-10.74714844 9.32181641 -10.74714844 9.32181641 -9.8515625 8.18359375 C-6.87719968 4.67585363 -4.27062225 1.83026668 0 0 Z " fill="#AE2326" transform="translate(571,208)"/>
<path d="M0 0 C5.84193892 5.30632405 9.36112753 13.12057282 10 21 C9.1646875 19.9171875 9.1646875 19.9171875 8.3125 18.8125 C6.05487159 15.97395496 6.05487159 15.97395496 3.5 13.5 C1.12324655 11.12324655 -0.94892056 8.65880668 -3 6 C-2.34 5.67 -1.68 5.34 -1 5 C-0.34444881 2.47266765 -0.34444881 2.47266765 0 0 Z " fill="#DF3940" transform="translate(744,437)"/>
<path d="M0 0 C13.36336835 -0.43814322 24.63828791 3.39153055 37 8 C36.67 8.99 36.34 9.98 36 11 C34.68 10.67 33.36 10.34 32 10 C32 9.34 32 8.68 32 8 C27.95858806 7.36605303 24.0934693 6.87595548 20 7 C20.33 6.34 20.66 5.68 21 5 C20.2884375 4.85820312 19.576875 4.71640625 18.84375 4.5703125 C16.98795491 4.19813381 15.13367939 3.81827183 13.28125 3.4296875 C12.3634375 3.24664062 11.445625 3.06359375 10.5 2.875 C9.5821875 2.68679687 8.664375 2.49859375 7.71875 2.3046875 C4.87927899 1.98647092 2.7523096 2.29197833 0 3 C0 2.01 0 1.02 0 0 Z " fill="#913432" transform="translate(632,189)"/>
<path d="M0 0 C4.01571172 3.69868185 6.72213078 7.43320066 9.375 12.1875 C9.74238281 12.81591797 10.10976563 13.44433594 10.48828125 14.09179688 C11.39457946 15.69064372 12.20593529 17.34254747 13 19 C12.67 19.66 12.34 20.32 12 21 C10.01804354 18.87754286 8.03935743 16.75219732 6.0625 14.625 C5.49853516 14.02171875 4.93457031 13.4184375 4.35351562 12.796875 C3.81533203 12.21679688 3.27714844 11.63671875 2.72265625 11.0390625 C1.97640991 10.23782959 1.97640991 10.23782959 1.21508789 9.42041016 C0 8 0 8 -1 6 C-0.34 6 0.32 6 1 6 C0.67 4.02 0.34 2.04 0 0 Z " fill="#9E4A4A" transform="translate(727,245)"/>
<path d="M0 0 C4.38914698 2.82065301 8.4008749 5.87444683 12.375 9.25 C12.92027344 9.70890625 13.46554687 10.1678125 14.02734375 10.640625 C15.35386136 11.75769246 16.67726419 12.87845702 18 14 C14.328125 15.15625 14.328125 15.15625 11.375 13.75 C9 12 9 12 7 9 C3.91634129 8.7497843 3.91634129 8.7497843 1 9 C1.66 7.02 2.32 5.04 3 3 C2.01 2.67 1.02 2.34 0 2 C0 1.34 0 0.68 0 0 Z " fill="#DC2D32" transform="translate(619,343)"/>
<path d="M0 0 C3.63095781 1.29950069 6.36979696 2.84149792 9.375 5.25 C10.14457031 5.86488281 10.91414062 6.47976562 11.70703125 7.11328125 C14.84661759 9.6966206 17.9361135 12.32724794 21 15 C18 16 18 16 16 15.25 C14.00997063 14.00623164 12.61669662 12.68698778 11 11 C10.01 10.34 9.02 9.68 8 9 C7.67 8.01 7.34 7.02 7 6 C5.37051936 4.77554716 5.37051936 4.77554716 3.4375 3.8125 C2.303125 3.214375 1.16875 2.61625 0 2 C0 1.34 0 0.68 0 0 Z " fill="#953333" transform="translate(688,209)"/>
<path d="M0 0 C6.15234375 0.5859375 6.15234375 0.5859375 8 1 C8.33 1.66 8.66 2.32 9 3 C9.99 3.66 10.98 4.32 12 5 C11.67 5.66 11.34 6.32 11 7 C11.99 6.67 12.98 6.34 14 6 C15.5 7.375 15.5 7.375 17 9 C17 9.66 17 10.32 17 11 C17.66 11 18.32 11 19 11 C19.33 11.99 19.66 12.98 20 14 C15.97591531 12.58317163 12.86583081 10.65214232 9.4375 8.125 C8.50808594 7.44695312 7.57867188 6.76890625 6.62109375 6.0703125 C4.22525515 4.17792135 2.10377305 2.20772419 0 0 Z " fill="#E22E36" transform="translate(600,360)"/>
<path d="M0 0 C0.66 0.33 1.32 0.66 2 1 C1.80664062 1.54527344 1.61328125 2.09054688 1.4140625 2.65234375 C-2.20251245 13.12608804 -3.44697571 22.9540674 -4 34 C-4.33 34 -4.66 34 -5 34 C-5.08857863 30.7085089 -5.1409104 27.41733195 -5.1875 24.125 C-5.21263672 23.2071875 -5.23777344 22.289375 -5.26367188 21.34375 C-5.33346187 14.73696406 -4.24534805 9.20867002 -2 3 C-1.34 3 -0.68 3 0 3 C0 2.01 0 1.02 0 0 Z " fill="#AA2222" transform="translate(569,243)"/>
<path d="M0 0 C0 0.66 0 1.32 0 2 C-1.64333504 3.03789581 -3.31243867 4.03567924 -5 5 C-5.66 5.66 -6.32 6.32 -7 7 C-10.125 7.125 -10.125 7.125 -13 7 C-13.20625 7.61875 -13.4125 8.2375 -13.625 8.875 C-15.54775888 11.84653645 -17.66594527 12.13024659 -21 13 C-15.38986024 7.03922651 -8.55431732 0 0 0 Z " fill="#A5403F" transform="translate(589,197)"/>
<path d="M0 0 C0.99 0.66 1.98 1.32 3 2 C3 2.66 3 3.32 3 4 C3.99 4.33 4.98 4.66 6 5 C5.34 5 4.68 5 4 5 C4.45375 5.45375 4.9075 5.9075 5.375 6.375 C6.58333333 7.58333333 7.79166667 8.79166667 9 10 C7.02 10 5.04 10 3 10 C2.7525 9.38125 2.505 8.7625 2.25 8.125 C0.79371361 5.64931313 -0.37812506 5.04874998 -3 4 C-3 3.34 -3 2.68 -3 2 C-4.32 1.34 -5.64 0.68 -7 0 C-4.28569464 -1.35715268 -2.88661718 -0.77445827 0 0 Z " fill="#932324" transform="translate(699,219)"/>
<path d="M0 0 C0.73605469 0.47050781 1.47210937 0.94101562 2.23046875 1.42578125 C3.20628906 2.04839844 4.18210937 2.67101562 5.1875 3.3125 C6.15042969 3.92738281 7.11335937 4.54226563 8.10546875 5.17578125 C10.71634303 6.82123103 13.3469602 8.42369665 16 10 C13 11 13 11 9.875 9.6875 C7 8 7 8 6 6 C5.01 6 4.02 6 3 6 C3.33 6.99 3.66 7.98 4 9 C3.01 9 2.02 9 1 9 C0.67 6.03 0.34 3.06 0 0 Z " fill="#D93038" transform="translate(688,390)"/>
<path d="M0 0 C4.77135213 3.57851409 7.29076328 6.68572797 10 12 C8.35 12.33 6.7 12.66 5 13 C4.67 12.34 4.34 11.68 4 11 C4.66 11 5.32 11 6 11 C6 10.34 6 9.68 6 9 C4.35 9 2.7 9 1 9 C0.67 6.03 0.34 3.06 0 0 Z " fill="#7A7C7D" transform="translate(632,418)"/>
<path d="M0 0 C6.16456078 0.38528505 9.98627748 2.47086025 15 6 C14.01 6.33 13.02 6.66 12 7 C11.34 6.67 10.68 6.34 10 6 C8.32345271 6.27942455 6.65391846 6.60828247 5 7 C4.731875 6.401875 4.46375 5.80375 4.1875 5.1875 C3.01506533 3.02775192 1.80630718 1.64209744 0 0 Z " fill="#92302E" transform="translate(672,201)"/>
<path d="M0 0 C0.69649658 0.01571045 1.39299316 0.0314209 2.1105957 0.04760742 C2.86791992 0.05727539 3.62524414 0.06694336 4.40551758 0.0769043 C5.19120117 0.10204102 5.97688477 0.12717773 6.78637695 0.15307617 C7.98230469 0.17337891 7.98230469 0.17337891 9.20239258 0.1940918 C11.16817663 0.22940528 13.13361278 0.2832117 15.09887695 0.34057617 C15.42887695 1.33057617 15.75887695 2.32057617 16.09887695 3.34057617 C9.16887695 3.34057617 2.23887695 3.34057617 -4.90112305 3.34057617 C-1.90112305 0.34057617 -1.90112305 0.34057617 0 0 Z " fill="#7E3C38" transform="translate(639.901123046875,211.659423828125)"/>
<path d="M0 0 C0.33 1.32 0.66 2.64 1 4 C0.01 4.33 -0.98 4.66 -2 5 C-2.99 6.485 -2.99 6.485 -4 8 C-5.65816784 8.68753301 -7.32459336 9.35561283 -9 10 C-9.33 10.66 -9.66 11.32 -10 12 C-10.66 11.67 -11.32 11.34 -12 11 C-4.88610478 2.3690205 -4.88610478 2.3690205 0 0 Z " fill="#A52D30" transform="translate(571,208)"/>
<path d="M0 0 C1.65 1.65 3.3 3.3 5 5 C4.360625 5.28875 3.72125 5.5775 3.0625 5.875 C0.84793921 6.82823451 0.84793921 6.82823451 0 9 C0.66 9 1.32 9 2 9 C1.67 9.66 1.34 10.32 1 11 C-0.65 9.35 -2.3 7.7 -4 6 C-3.34 6 -2.68 6 -2 6 C-1.7834375 5.071875 -1.7834375 5.071875 -1.5625 4.125 C-1 2 -1 2 0 0 Z " fill="#9A3838" transform="translate(719,235)"/>
<path d="M0 0 C2.31 0.33 4.62 0.66 7 1 C7.33 2.65 7.66 4.3 8 6 C7.01 6.495 7.01 6.495 6 7 C4.0546875 6.22265625 4.0546875 6.22265625 1.875 5.0625 C1.15054688 4.68222656 0.42609375 4.30195313 -0.3203125 3.91015625 C-0.87460937 3.60980469 -1.42890625 3.30945313 -2 3 C-1.34 2.01 -0.68 1.02 0 0 Z " fill="#E62C36" transform="translate(672,400)"/>
<path d="M0 0 C1.32 0 2.64 0 4 0 C4 0.66 4 1.32 4 2 C5.670625 2.4021875 5.670625 2.4021875 7.375 2.8125 C11 4 11 4 13 7 C15.56282742 7.72965366 15.56282742 7.72965366 18 8 C17.34 9.32 16.68 10.64 16 12 C13.89311385 10.56635564 11.78949074 9.12829067 9.6875 7.6875 C9.09259766 7.28337891 8.49769531 6.87925781 7.88476562 6.46289062 C5.02390921 4.49705074 2.32453048 2.5930683 0 0 Z " fill="#DC3740" transform="translate(724,431)"/>
<path d="M0 0 C1.77433812 0.93084971 3.54435149 1.86994613 5.3125 2.8125 C6.29863281 3.33457031 7.28476562 3.85664063 8.30078125 4.39453125 C10.61665068 5.7719876 12.23611001 6.99530591 14 9 C11.3125 9.8125 11.3125 9.8125 8 10 C5.125 7.6875 5.125 7.6875 3 5 C3 4.34 3 3.68 3 3 C2.01 2.67 1.02 2.34 0 2 C0 1.34 0 0.68 0 0 Z " fill="#DD3137" transform="translate(649,366)"/>
<path d="M0 0 C4.62893839 1.32255383 8.08430083 3.21550281 12 6 C12.99 6.66 13.98 7.32 15 8 C15 8.99 15 9.98 15 11 C11.43503982 9.37879192 8.40991178 7.2405574 5.25 4.9375 C3.77273438 3.86822266 3.77273438 3.86822266 2.265625 2.77734375 C1.51796875 2.19082031 0.7703125 1.60429687 0 1 C0 0.67 0 0.34 0 0 Z " fill="#DB373E" transform="translate(585,349)"/>
<path d="M0 0 C3.26533024 3.17462662 6.16918628 6.43865371 9 10 C10.31494512 11.35147138 11.64264858 12.69112542 13 14 C10 14 10 14 7.625 11.875 C6.325625 10.451875 6.325625 10.451875 5 9 C4.52691406 8.484375 4.05382812 7.96875 3.56640625 7.4375 C0 3.39624646 0 3.39624646 0 0 Z " fill="#FDDCDD" transform="translate(561,325)"/>
<path d="M0 0 C4.25209792 4.12324647 8.13635705 8.51282966 12 13 C11.01 13.33 10.02 13.66 9 14 C5.39796856 10.39796856 2.42387297 6.48416499 0 2 C0 1.34 0 0.68 0 0 Z " fill="#878787" transform="translate(458,481)"/>
<path d="M0 0 C0.96070434 2.88211302 1.10581883 4.69850044 1.0625 7.6875 C1.05347656 8.49574219 1.04445313 9.30398438 1.03515625 10.13671875 C1.02355469 10.75160156 1.01195312 11.36648438 1 12 C-2 10 -2 10 -2.51171875 8.0546875 C-2.67447917 6.03645833 -2.83723958 4.01822917 -3 2 C-2.01 1.34 -1.02 0.68 0 0 Z " fill="#DB2125" transform="translate(550,288)"/>
<path d="M0 0 C0.33 0 0.66 0 1 0 C1 2.31 1 4.62 1 7 C0.67 7 0.34 7 0 7 C-0.66 9.97 -1.32 12.94 -2 16 C-2.66 16 -3.32 16 -4 16 C-3.39891424 10.34979382 -1.92471317 5.33835539 0 0 Z " fill="#BE494C" transform="translate(548,238)"/>
<path d="M0 0 C2.31 1.98 4.62 3.96 7 6 C6.01 6.99 5.02 7.98 4 9 C3.34 8.67 2.68 8.34 2 8 C2 7.34 2 6.68 2 6 C1.34 6 0.68 6 0 6 C-0.38218767 4.34385343 -0.71395102 2.67542976 -1 1 C-0.67 0.67 -0.34 0.34 0 0 Z " fill="#9B2B32" transform="translate(712,228)"/>
<path d="M0 0 C2.31 0 4.62 0 7 0 C8.32 2.31 9.64 4.62 11 7 C6.89188572 5.55007731 3.53144334 3.54592427 0 1 C0 0.67 0 0.34 0 0 Z " fill="#E2333D" transform="translate(624,376)"/>
<path d="M0 0 C2.31 1.98 4.62 3.96 7 6 C6.34 6.66 5.68 7.32 5 8 C3.02 7.34 1.04 6.68 -1 6 C-0.67 4.02 -0.34 2.04 0 0 Z " fill="#D23738" transform="translate(605,329)"/>
<path d="M0 0 C0.99 0 1.98 0 3 0 C1.31326082 4.49797113 -0.81673892 8.72886302 -3 13 C-3.66 12.67 -4.32 12.34 -5 12 C-3.35 8.04 -1.7 4.08 0 0 Z " fill="#903132" transform="translate(589,242)"/>
<path d="M0 0 C3.63 0 7.26 0 11 0 C11.33 0.99 11.66 1.98 12 3 C13.32 3 14.64 3 16 3 C16 3.66 16 4.32 16 5 C10.72 3.68 5.44 2.36 0 1 C0 0.67 0 0.34 0 0 Z " fill="#874544" transform="translate(664,216)"/>
<path d="M0 0 C1.65 1.32 3.3 2.64 5 4 C3.68 4 2.36 4 1 4 C0.67 4.99 0.34 5.98 0 7 C0.66 7.33 1.32 7.66 2 8 C1.34 8.66 0.68 9.32 0 10 C-0.99 8.68 -1.98 7.36 -3 6 C-2.01 4.02 -1.02 2.04 0 0 Z " fill="#606060" transform="translate(489,514)"/>
<path d="M0 0 C5.5 -0.36666667 5.5 -0.36666667 7.875 1.375 C9 3 9 3 9 5 C9.66 5 10.32 5 11 5 C11.33 5.99 11.66 6.98 12 8 C7.44328408 6.48109469 3.68276708 4.04597738 0 1 C0 0.67 0 0.34 0 0 Z " fill="#DF4146" transform="translate(608,366)"/>
<path d="M0 0 C1.32 0 2.64 0 4 0 C4 2.31 4 4.62 4 7 C2.02 6.34 0.04 5.68 -2 5 C-2 4.34 -2 3.68 -2 3 C-1.34 2.67 -0.68 2.34 0 2 C0 1.34 0 0.68 0 0 Z " fill="#EB1B25" transform="translate(732,429)"/>
<path d="M0 0 C6.75 1.625 6.75 1.625 9 5 C9.66 5.33 10.32 5.66 11 6 C10.67 6.99 10.34 7.98 10 9 C8.33043913 7.69118353 6.66441696 6.37785174 5 5.0625 C4.071875 4.33160156 3.14375 3.60070312 2.1875 2.84765625 C1.465625 2.23792969 0.74375 1.62820313 0 1 C0 0.67 0 0.34 0 0 Z " fill="#FDE1DE" transform="translate(714,407)"/>
<path d="M0 0 C3.14027363 0.33645789 4.05098295 1.05236086 6.3125 3.375 C6.869375 4.24125 7.42625 5.1075 8 6 C7.67 6.99 7.34 7.98 7 9 C4.03595495 6.19195732 1.55500981 3.81684226 0 0 Z " fill="#DD3639" transform="translate(559,321)"/>
<path d="M0 0 C2.97 0.33 5.94 0.66 9 1 C9 1.99 9 2.98 9 4 C9.66 4 10.32 4 11 4 C11 4.66 11 5.32 11 6 C6.95743617 4.77782954 3.50711041 3.37245704 0 1 C0 0.67 0 0.34 0 0 Z " fill="#DF3942" transform="translate(687,411)"/>
<path d="M0 0 C2.31 1.98 4.62 3.96 7 6 C5.02 6.99 5.02 6.99 3 8 C2.34 7.67 1.68 7.34 1 7 C0.59270772 4.67843403 0.25561323 2.3431213 0 0 Z " fill="#D73339" transform="translate(612,336)"/>
<path d="M0 0 C0.33 0.66 0.66 1.32 1 2 C2.32 1.67 3.64 1.34 5 1 C5.66 1.99 6.32 2.98 7 4 C6.67 4.99 6.34 5.98 6 7 C2.73539027 5.19587357 1.11070205 4.16605307 -1 1 C-0.67 0.67 -0.34 0.34 0 0 Z " fill="#93312F" transform="translate(722,245)"/>
<path d="M0 0 C0.33 0.66 0.66 1.32 1 2 C-0.1875 5.5625 -0.1875 5.5625 -2 9 C-4.1875 9.9375 -4.1875 9.9375 -6 10 C-5.34 9.34 -4.68 8.68 -4 8 C-3.855625 7.195625 -3.71125 6.39125 -3.5625 5.5625 C-2.94203743 2.7359483 -2.18992875 1.80907157 0 0 Z " fill="#882828" transform="translate(596,232)"/>
<path d="M0 0 C4.24822374 0.47202486 6.19989709 2.96655518 9 6 C8.67 6.99 8.34 7.98 8 9 C6.66368764 7.6905332 5.33102075 6.37734515 4 5.0625 C3.2575 4.33160156 2.515 3.60070312 1.75 2.84765625 C0 1 0 1 0 0 Z " fill="#F3DCD9" transform="translate(706,221)"/>
<path d="M0 0 C1.98 0.99 1.98 0.99 4 2 C4 2.99 4 3.98 4 5 C4.66 5.33 5.32 5.66 6 6 C5.01 6 4.02 6 3 6 C3.33 6.99 3.66 7.98 4 9 C3.01 9 2.02 9 1 9 C0.67 6.03 0.34 3.06 0 0 Z " fill="#E7272F" transform="translate(688,390)"/>
<path d="M0 0 C3.4375 0.8125 3.4375 0.8125 7 2 C7.33 2.99 7.66 3.98 8 5 C9.49985609 6.66710346 9.49985609 6.66710346 11 8 C7.24026115 8 6.54322371 7.03457593 3.8125 4.5625 C3.09707031 3.92441406 2.38164063 3.28632813 1.64453125 2.62890625 C1.10183594 2.09136719 0.55914063 1.55382812 0 1 C0 0.67 0 0.34 0 0 Z " fill="#DF373F" transform="translate(569,334)"/>
<path d="M0 0 C2.3129482 2.3129482 2.49580975 3.47904875 3.125 6.625 C3.29257812 7.44226563 3.46015625 8.25953125 3.6328125 9.1015625 C3.81457031 10.04128906 3.81457031 10.04128906 4 11 C1.59927045 8.11912454 -0.47291037 5.43595166 -2 2 C-1.34 2 -0.68 2 0 2 C0 1.34 0 0.68 0 0 Z " fill="#D15259" transform="translate(750,447)"/>
<path d="M0 0 C1.12894876 0.93274109 2.25300876 1.87140122 3.375 2.8125 C4.00148438 3.33457031 4.62796875 3.85664063 5.2734375 4.39453125 C7 6 7 6 9 9 C5.95153135 8.67043582 4.41570354 8.4305501 2.25 6.1875 C1.04343803 4.07601655 0.53200396 2.34968416 0 0 Z " fill="#FBD0D1" transform="translate(575,340)"/>
<path d="M0 0 C0.99 1.98 1.98 3.96 3 6 C-0.45925163 4.7508258 -3.14693203 3.32472205 -6 1 C-3 0 -3 0 0 0 Z " fill="#DE343B" transform="translate(659,392)"/>
<path d="M0 0 C1.98 1.65 3.96 3.3 6 5 C5.67 5.66 5.34 6.32 5 7 C4.01 7 3.02 7 2 7 C1.87625 6.360625 1.7525 5.72125 1.625 5.0625 C1.315625 4.0415625 1.315625 4.0415625 1 3 C0.34 2.67 -0.32 2.34 -1 2 C-0.67 1.34 -0.34 0.68 0 0 Z " fill="#737373" transform="translate(473,498)"/>
<path d="M0 0 C2.31 0 4.62 0 7 0 C7.33 1.65 7.66 3.3 8 5 C4.62496331 3.8141763 2.35277269 2.72426311 0 0 Z " fill="#FCDDDE" transform="translate(660,372)"/>
<path d="M0 0 C0.33 0.66 0.66 1.32 1 2 C0.0625 4.125 0.0625 4.125 -1 6 C-0.34 6.33 0.32 6.66 1 7 C0.01 7.99 -0.98 8.98 -2 10 C-2.66 8.68 -3.32 7.36 -4 6 C-2.68 4.02 -1.36 2.04 0 0 Z " fill="#AF3939" transform="translate(558,220)"/>
<path d="M0 0 C1.98 1.65 3.96 3.3 6 5 C4.02 5.99 4.02 5.99 2 7 C0 5 0 5 -0.125 2.375 C-0.08375 1.59125 -0.0425 0.8075 0 0 Z " fill="#828385" transform="translate(632,418)"/>
<path d="M0 0 C1.68762851 1.6454378 3.3540349 3.31288577 5 5 C5 5.33 5 5.66 5 6 C3.35 6 1.7 6 0 6 C0 4.02 0 2.04 0 0 Z " fill="#818182" transform="translate(627,412)"/>
<path d="M0 0 C0.99 0.33 1.98 0.66 3 1 C3.625 2.8125 3.625 2.8125 4 5 C4.185625 5.7425 4.37125 6.485 4.5625 7.25 C4.706875 7.8275 4.85125 8.405 5 9 C2.5 6.6875 2.5 6.6875 0 4 C0 2.66666667 0 1.33333333 0 0 Z " fill="#FCE1DD" transform="translate(733,420)"/>
<path d="M0 0 C2.64 1.65 5.28 3.3 8 5 C6.68 5.33 5.36 5.66 4 6 C4 5.34 4 4.68 4 4 C2.68 3.67 1.36 3.34 0 3 C0 2.01 0 1.02 0 0 Z " fill="#DE2E35" transform="translate(704,401)"/>
<path d="M0 0 C1.65 0 3.3 0 5 0 C5.33 0.99 5.66 1.98 6 3 C8.01508358 3.73323796 8.01508358 3.73323796 10 4 C9.67 4.66 9.34 5.32 9 6 C6.03 4.35 3.06 2.7 0 1 C0 0.67 0 0.34 0 0 Z " fill="#DB3B47" transform="translate(635,383)"/>
<path d="M0 0 C0.99 0 1.98 0 3 0 C3.33 0.99 3.66 1.98 4 3 C3.01 3.33 2.02 3.66 1 4 C0.67 4.66 0.34 5.32 0 6 C-0.66 5.01 -1.32 4.02 -2 3 C-1.34 2.01 -0.68 1.02 0 0 Z " fill="#7C7C7F" transform="translate(468,322)"/>
<path d="M0 0 C2.88575819 0.39803561 3.82189513 0.79009069 5.75 3.0625 C6.1625 3.701875 6.575 4.34125 7 5 C4.625 4.75 4.625 4.75 2 4 C0.6875 1.9375 0.6875 1.9375 0 0 Z " fill="#676767" transform="translate(450,300)"/>
<path d="M0 0 C1.65 1.65 3.3 3.3 5 5 C3.68 5.33 2.36 5.66 1 6 C0.4465236 3.92446352 0 2.15634036 0 0 Z " fill="#F8EBE8" transform="translate(732,258)"/>
<path d="M0 0 C1 3 1 3 0.3125 5.125 C-1 7 -1 7 -3.125 7.75 C-4.053125 7.87375 -4.053125 7.87375 -5 8 C-1.125 1.125 -1.125 1.125 0 0 Z " fill="#EFD3D0" transform="translate(596,237)"/>
<path d="M0 0 C1.32 0.33 2.64 0.66 4 1 C3.195625 1.45375 2.39125 1.9075 1.5625 2.375 C-1.08856572 3.74725665 -1.08856572 3.74725665 -2 6 C-2.66 5.67 -3.32 5.34 -4 5 C-2.68 3.35 -1.36 1.7 0 0 Z " fill="#AC3D3E" transform="translate(563,214)"/>
<path d="M0 0 C1.32 0 2.64 0 4 0 C4 0.66 4 1.32 4 2 C-0.38461538 5 -0.38461538 5 -3 5 C-1.125 1.125 -1.125 1.125 0 0 Z " fill="#9C2F31" transform="translate(585,197)"/>
<path d="M0 0 C2.64 0 5.28 0 8 0 C8 0.33 8 0.66 8 1 C6.7934375 1.185625 6.7934375 1.185625 5.5625 1.375 C4.716875 1.58125 3.87125 1.7875 3 2 C2.67 2.66 2.34 3.32 2 4 C0.68 3.34 -0.64 2.68 -2 2 C-1.34 2 -0.68 2 0 2 C0 1.34 0 0.68 0 0 Z " fill="#9C2C2B" transform="translate(598,192)"/>
</svg>
